<svg width="324px" height="463px" viewBox="0 0 324 463" version="1.1" xmlns="http://www.w3.org/2000/svg" xmlns:xlink="http://www.w3.org/1999/xlink">
	<g stroke="none" stroke-width="1" fill="none" fill-rule="evenodd">
		<path d="M107.911867,84.426 C82.041867,150.306 8.66186697,209.109 0.721866971,286.961 L0.571866971,286.961 C-0.488133029,299.691 -0.0781330286,312.541 1.83186697,325.171 C10.261867,380.901 47.131867,427.301 97.181867,449.111 L97.001867,448.801 C129.331867,462.941 169.241867,465.251 203.491867,458.261 C94.821867,429.131 83.581867,339.021 127.711867,274.271 C122.071867,288.401 118.241867,315.241 124.801867,328.591 C141.261867,277.491 171.501867,252.835 199.181867,227.383 C170.641867,264.451 149.281867,313.501 154.471867,356.091 C156.081867,369.231 159.581867,381.641 164.591867,392.651 C162.261867,378.101 163.471867,362.031 169.831867,345.051 C160.301867,413.221 235.841867,454.071 282.261867,408.401 C287.051867,403.191 291.541867,397.551 295.671867,391.461 C320.341867,355.101 327.881867,313.191 321.061867,271.181 C307.101867,185.09 236.161867,124.688 214.611867,105.015 C220.431867,142.087 212.641867,183.423 181.101867,221.357 C204.161867,150.315 204.451867,57.872 113.481867,0 C128.371867,36.286 130.281867,81.102 104.841867,126.588 C106.871867,112.608 108.041867,98.452 107.911867,84.426" fill="#694CD4"></path>
	</g>
</svg>