<?xml version="1.0" standalone="no"?>
<!DOCTYPE svg PUBLIC "-//W3C//DTD SVG 20010904//EN"
 "http://www.w3.org/TR/2001/REC-SVG-20010904/DTD/svg10.dtd">
<svg version="1.0" xmlns="http://www.w3.org/2000/svg"
 width="926.000000pt" height="926.000000pt" viewBox="0 0 926.000000 926.000000"
 preserveAspectRatio="xMidYMid meet">
<metadata>
Created by potrace 1.14, written by Peter Selinger 2001-2017
</metadata>
<g transform="translate(0.000000,926.000000) scale(0.100000,-0.100000)"
fill="#000000" stroke="none">
<path d="M3689 9183 c34 -83 93 -273 107 -343 1 -8 9 -44 18 -80 15 -68 22
-107 32 -175 3 -22 8 -51 10 -65 23 -120 23 -561 0 -700 -3 -14 -10 -59 -16
-100 -45 -286 -144 -582 -297 -885 -25 -49 -47 -92 -50 -95 -4 -5 3 75 11 116
2 11 7 54 11 95 4 41 9 88 10 104 13 124 29 512 20 503 -1 -1 -15 -32 -30 -67
-28 -68 -155 -330 -179 -371 -9 -14 -45 -77 -82 -140 -37 -63 -87 -146 -112
-185 -25 -38 -57 -90 -73 -115 -16 -25 -32 -50 -37 -56 -5 -5 -15 -21 -22 -35
-7 -13 -16 -26 -19 -29 -3 -3 -35 -48 -71 -100 -86 -128 -110 -162 -290 -414
-85 -120 -165 -232 -177 -249 -12 -18 -66 -97 -121 -177 -148 -214 -314 -474
-415 -650 -83 -145 -231 -438 -271 -540 -10 -25 -22 -54 -27 -65 -11 -27 -60
-158 -63 -170 -2 -5 -6 -19 -10 -30 -20 -52 -39 -119 -50 -170 -2 -5 -8 -30
-15 -55 -7 -25 -15 -56 -18 -70 -2 -14 -9 -45 -15 -70 -6 -25 -12 -54 -13 -65
-2 -11 -8 -49 -14 -85 -5 -36 -14 -92 -18 -125 -9 -68 -9 -489 0 -580 11 -100
19 -167 32 -240 3 -16 8 -46 11 -65 4 -19 7 -42 9 -50 1 -8 5 -22 8 -30 3 -8
8 -28 11 -45 4 -16 9 -41 12 -55 6 -32 43 -160 51 -180 3 -8 7 -19 8 -25 5
-19 43 -130 55 -160 7 -16 17 -41 23 -55 5 -14 15 -38 22 -55 16 -38 162 -333
178 -360 34 -57 199 -306 210 -317 7 -7 29 -35 50 -63 72 -94 132 -160 252
-280 147 -147 177 -173 301 -270 55 -42 107 -83 117 -91 9 -8 20 -14 23 -14 2
0 10 -5 17 -10 17 -15 155 -103 197 -126 19 -10 37 -22 40 -25 8 -9 262 -135
290 -144 14 -4 39 -13 55 -20 17 -7 64 -25 105 -40 41 -15 84 -31 95 -35 17
-7 94 -29 245 -70 50 -14 216 -47 275 -55 28 -4 59 -9 70 -10 49 -8 124 -16
175 -21 123 -10 186 -15 198 -14 28 1 41 1 132 -1 132 -1 360 11 480 26 25 3
61 7 80 10 19 2 46 7 60 9 14 3 41 8 60 10 45 7 94 17 97 20 2 1 -25 10 -60
20 -34 10 -71 21 -82 26 -11 4 -51 18 -90 30 -116 36 -272 99 -422 170 -139
67 -315 166 -321 182 -2 4 -8 8 -13 8 -13 0 -100 62 -209 149 -112 89 -251
226 -336 331 -66 81 -194 271 -194 288 0 6 -3 12 -7 14 -8 3 -47 81 -89 174
-12 27 -38 97 -57 155 -30 89 -40 122 -48 161 0 4 -9 43 -19 87 -10 44 -15 82
-13 85 3 3 2 10 -2 16 -19 31 -27 422 -12 550 26 217 97 498 168 665 7 17 13
32 14 35 17 51 127 274 139 282 7 5 7 8 1 8 -6 0 -6 3 1 8 5 4 18 23 27 42 20
40 39 73 48 80 3 3 16 24 29 48 33 58 42 53 18 -10 -11 -29 -21 -60 -23 -69
-2 -8 -10 -44 -19 -80 -9 -35 -18 -79 -21 -96 -3 -18 -7 -48 -10 -65 -3 -18
-7 -44 -10 -58 -32 -184 -19 -448 28 -586 16 -44 28 -46 40 -7 5 16 11 35 14
43 3 8 7 20 9 25 5 20 75 196 100 253 67 149 140 289 208 397 18 28 38 62 46
78 7 15 17 27 22 27 4 0 8 4 8 10 0 13 108 164 189 265 168 209 398 444 745
758 17 16 48 44 69 64 43 40 48 35 12 -11 -14 -17 -29 -36 -33 -41 -4 -6 -19
-27 -34 -47 -16 -20 -28 -41 -28 -46 0 -6 -4 -12 -8 -14 -8 -3 -162 -233 -162
-241 0 -2 -26 -46 -57 -98 -50 -84 -223 -418 -223 -432 0 -3 -13 -34 -29 -69
-76 -167 -225 -618 -204 -618 3 0 0 -6 -6 -13 -6 -8 -8 -16 -5 -20 3 -3 1 -14
-4 -24 -5 -10 -12 -36 -16 -58 -3 -22 -8 -51 -11 -65 -3 -14 -8 -43 -10 -65
-3 -22 -7 -56 -10 -75 -28 -192 -23 -532 11 -700 3 -14 7 -38 10 -55 3 -16 10
-48 16 -70 6 -22 13 -53 15 -70 3 -16 9 -38 14 -47 5 -10 7 -18 5 -18 -8 0 82
-257 104 -299 l19 -36 -6 40 c-16 91 -8 417 13 529 20 113 84 336 96 336 5 0
6 -6 1 -13 -14 -22 -12 -308 4 -407 8 -52 15 -103 16 -112 1 -10 5 -18 10 -18
4 0 6 -4 3 -9 -9 -13 50 -184 96 -279 130 -274 340 -492 608 -634 67 -36 180
-84 220 -93 8 -2 41 -11 73 -19 31 -9 72 -18 90 -21 17 -2 46 -7 62 -10 66
-14 299 -8 380 9 338 71 600 238 828 528 60 77 131 176 140 195 6 13 14 23 19
23 4 0 8 4 8 9 0 6 13 29 29 53 72 108 261 480 261 514 0 3 7 20 14 37 23 49
104 301 110 342 4 21 8 41 11 45 2 3 7 22 10 41 3 19 10 50 15 69 10 40 21 99
35 195 3 23 8 52 10 65 18 90 26 538 12 700 -11 133 -17 180 -49 370 -12 73
-69 311 -95 398 -9 31 -17 59 -18 62 -2 10 -57 176 -65 195 -4 11 -18 47 -31
80 -12 33 -32 83 -45 110 -12 28 -38 88 -59 135 -56 128 -173 349 -276 521
-51 85 -95 156 -98 159 -3 3 -28 39 -56 80 -27 41 -75 110 -107 153 -32 43
-58 82 -58 86 0 5 -3 11 -8 13 -4 2 -23 23 -42 48 -19 25 -37 47 -40 50 -3 3
-21 25 -40 50 -19 25 -37 47 -40 50 -3 3 -33 39 -67 80 -171 209 -513 562
-768 795 -60 55 -131 120 -157 143 -41 39 -46 41 -43 20 6 -30 14 -105 22
-193 14 -148 6 -500 -12 -590 -2 -11 -6 -41 -9 -68 -3 -26 -7 -51 -10 -55 -3
-5 -7 -26 -10 -48 -6 -42 -7 -48 -30 -144 -17 -75 -72 -256 -86 -285 -5 -11
-22 -54 -38 -95 -70 -177 -189 -400 -306 -568 -28 -41 -55 -81 -61 -90 -5 -9
-15 -21 -21 -27 -6 -5 -24 -28 -40 -50 -33 -47 -64 -79 -64 -67 0 4 9 37 21
73 25 76 28 88 29 94 1 3 8 28 16 57 9 28 18 60 20 70 2 10 6 26 9 36 18 70
44 182 48 207 3 17 10 51 16 76 6 25 13 61 15 80 3 19 7 45 10 59 10 53 23
142 32 215 3 28 7 64 9 80 15 122 19 233 20 455 0 282 -9 420 -39 595 -2 11
-7 40 -10 65 -4 25 -9 53 -12 62 -2 9 -7 27 -9 40 -4 22 -27 124 -31 141 -1 4
-2 8 -4 10 -1 1 -3 9 -5 17 -1 8 -10 41 -20 72 -9 32 -16 59 -16 60 2 6 -82
236 -106 293 -34 78 -146 309 -154 315 -3 3 -17 25 -30 50 -43 81 -193 302
-234 346 -5 6 -19 23 -30 38 -11 16 -25 33 -31 40 -5 6 -42 47 -81 91 -65 74
-157 167 -260 261 -53 49 -64 59 -268 223 -56 44 -246 171 -257 171 -4 0 6
-30 21 -67z"/>
</g>
</svg>
